<mxfile host="65bd71144e">
    <diagram id="K-j9CzsKYzYq1POc1OW6" name="Página-1">
        <mxGraphModel dx="752" dy="496" grid="1" gridSize="10" guides="1" tooltips="1" connect="1" arrows="1" fold="1" page="1" pageScale="1" pageWidth="827" pageHeight="1169" math="0" shadow="0">
            <root>
                <mxCell id="0"/>
                <mxCell id="1" parent="0"/>
                <mxCell id="2" value="Catedral De Santiago: Edificio" style="swimlane;" vertex="1" parent="1">
                    <mxGeometry x="290" y="170" width="290" height="210" as="geometry"/>
                </mxCell>
                <mxCell id="3" value="Nombre = &quot;Catedral De Santiago de Compostela&quot; Culto = Católico&lt;br&gt;Fecha de primera consagración = 1128&lt;br&gt;Fecha segunda consagración = 3 de abril de 1211&lt;br&gt;Fecha declaración BIC = 1896&lt;br&gt;Material = Granito&lt;br&gt;Estilo = Romántico, Gotico, Barroco, Plateresco, Neoclásico" style="text;html=1;strokeColor=none;fillColor=none;align=center;verticalAlign=middle;whiteSpace=wrap;rounded=0;" vertex="1" parent="2">
                    <mxGeometry y="20" width="290" height="190" as="geometry"/>
                </mxCell>
                <mxCell id="13" value="L1: Lugar" style="swimlane;" vertex="1" parent="1">
                    <mxGeometry x="700" y="175" width="200" height="200" as="geometry"/>
                </mxCell>
                <mxCell id="18" value="Ciudad = &quot;Santiago de Compostela&quot;&lt;br&gt;Comunidad=&quot;Galicia&quot;&lt;br&gt;Pais = &quot;España&quot;" style="text;html=1;strokeColor=none;fillColor=none;align=center;verticalAlign=middle;whiteSpace=wrap;rounded=0;" vertex="1" parent="13">
                    <mxGeometry x="37" y="75" width="120" height="60" as="geometry"/>
                </mxCell>
                <mxCell id="16" value="Ec1: Etapa de Construcción" style="swimlane;" vertex="1" parent="1">
                    <mxGeometry x="410" y="420" width="200" height="90" as="geometry"/>
                </mxCell>
                <mxCell id="19" value="Fecha inicio = 1075&lt;br&gt;Fecha fin = 1122" style="text;html=1;strokeColor=none;fillColor=none;align=center;verticalAlign=middle;whiteSpace=wrap;rounded=0;" vertex="1" parent="16">
                    <mxGeometry x="40" y="40" width="110" height="30" as="geometry"/>
                </mxCell>
                <mxCell id="17" value="Ec2: Etapa de Construcción" style="swimlane;" vertex="1" parent="1">
                    <mxGeometry x="410" y="550" width="200" height="90" as="geometry"/>
                </mxCell>
                <mxCell id="20" value="Fecha inicio = 1168&lt;br&gt;Fecha fin = nulo&amp;nbsp;" style="text;html=1;strokeColor=none;fillColor=none;align=center;verticalAlign=middle;whiteSpace=wrap;rounded=0;" vertex="1" parent="17">
                    <mxGeometry x="40" y="40" width="110" height="30" as="geometry"/>
                </mxCell>
                <mxCell id="21" value="" style="endArrow=classic;html=1;exitX=1.007;exitY=0.468;exitDx=0;exitDy=0;exitPerimeter=0;" edge="1" parent="1" source="3">
                    <mxGeometry width="50" height="50" relative="1" as="geometry">
                        <mxPoint x="580" y="410" as="sourcePoint"/>
                        <mxPoint x="700" y="279" as="targetPoint"/>
                    </mxGeometry>
                </mxCell>
                <mxCell id="24" value="Se encuentra en:" style="text;html=1;strokeColor=none;fillColor=none;align=center;verticalAlign=middle;whiteSpace=wrap;rounded=0;" vertex="1" parent="1">
                    <mxGeometry x="590" y="230" width="100" height="30" as="geometry"/>
                </mxCell>
                <mxCell id="26" value="" style="endArrow=classic;html=1;" edge="1" parent="1">
                    <mxGeometry width="50" height="50" relative="1" as="geometry">
                        <mxPoint x="320" y="460" as="sourcePoint"/>
                        <mxPoint x="400" y="460" as="targetPoint"/>
                    </mxGeometry>
                </mxCell>
                <mxCell id="27" value="" style="endArrow=none;html=1;entryX=0.107;entryY=1.005;entryDx=0;entryDy=0;entryPerimeter=0;" edge="1" parent="1" target="3">
                    <mxGeometry width="50" height="50" relative="1" as="geometry">
                        <mxPoint x="320" y="601" as="sourcePoint"/>
                        <mxPoint x="330" y="430" as="targetPoint"/>
                        <Array as="points">
                            <mxPoint x="321" y="460"/>
                        </Array>
                    </mxGeometry>
                </mxCell>
                <mxCell id="28" value="" style="endArrow=classic;html=1;" edge="1" parent="1">
                    <mxGeometry width="50" height="50" relative="1" as="geometry">
                        <mxPoint x="320" y="601" as="sourcePoint"/>
                        <mxPoint x="410" y="601" as="targetPoint"/>
                    </mxGeometry>
                </mxCell>
                <mxCell id="31" value="Construido en:" style="text;html=1;strokeColor=none;fillColor=none;align=center;verticalAlign=middle;whiteSpace=wrap;rounded=0;" vertex="1" parent="1">
                    <mxGeometry x="320" y="430" width="90" height="30" as="geometry"/>
                </mxCell>
                <mxCell id="33" value="Construido en:" style="text;html=1;strokeColor=none;fillColor=none;align=center;verticalAlign=middle;whiteSpace=wrap;rounded=0;" vertex="1" parent="1">
                    <mxGeometry x="320" y="570" width="90" height="30" as="geometry"/>
                </mxCell>
            </root>
        </mxGraphModel>
    </diagram>
</mxfile>